<?xml version="1.0" encoding="utf-8"?>
<!-- Generator: Adobe Illustrator 17.0.0, SVG Export Plug-In . SVG Version: 6.00 Build 0)  -->
<!DOCTYPE svg PUBLIC "-//W3C//DTD SVG 1.1//EN" "http://www.w3.org/Graphics/SVG/1.1/DTD/svg11.dtd">
<svg version="1.1" id="Layer_1" xmlns="http://www.w3.org/2000/svg" xmlns:xlink="http://www.w3.org/1999/xlink" x="0px" y="0px"
	 width="400px" height="400px" viewBox="0 0 400 400" enable-background="new 0 0 400 400" xml:space="preserve">
<g>
	<g>
		
			<radialGradient id="SVGID_1_" cx="69.2099" cy="-251.7348" r="76.0064" gradientTransform="matrix(1.6418 0.4972 0.4667 -1.7492 173.0053 -129.668)" gradientUnits="userSpaceOnUse">
			<stop  offset="0" style="stop-color:#A7CF38"/>
			<stop  offset="0.1097" style="stop-color:#9CBF38"/>
			<stop  offset="0.2969" style="stop-color:#84A138"/>
			<stop  offset="0.5389" style="stop-color:#617733"/>
			<stop  offset="0.8232" style="stop-color:#394724"/>
			<stop  offset="1" style="stop-color:#202A15"/>
		</radialGradient>
		<path fill="url(#SVGID_1_)" d="M143.9,58.791L70.516,315.82c0.005,0,0.005,0,0.005,0c0.003,0.002,0.008,0.005,0.013,0.005
			c0.003,0.001,0.01,0.001,0.013,0.001c0.002,0.002,0.012,0.002,0.013,0.004c0.003,0,3.064,0.621,6.796,1.375l36.267,7.337
			c3.732,0.754,9.841,1.99,13.573,2.745l55.367,11.202c3.734,0.755,9.843,1.99,13.575,2.745l50.435,10.204
			c3.732,0.755,9.839,1.992,13.573,2.745l18.48,3.74c3.73,0.753,7.531-1.843,8.439-5.773L345.76,98.452
			c0.91-3.931,1.417-6.128,2.087-9.022c0,0,0.262-1.13-0.423-2.442c-0.608-1.161-2.229-1.402-2.229-1.402
			c-2.684-0.359-5.279-0.702-9.049-1.206l-11.108-1.478c-3.77-0.501-9.941-1.324-13.71-1.825l-47.187-6.281
			c-3.77-0.502-9.939-1.326-13.708-1.827l-52.019-6.922c-3.769-0.501-9.938-1.326-13.708-1.827L150.81,59.71
			c-3.77-0.501-6.859-0.913-6.859-0.913c-0.002,0-0.012-0.002-0.013-0.002c-0.003,0.002-0.012-0.002-0.015-0.002
			c-0.002,0-0.01-0.003-0.012-0.003C143.907,58.792,143.904,58.791,143.9,58.791"/>
	</g>
	<g>
		
			<radialGradient id="SVGID_2_" cx="138.607" cy="-239.8774" r="142.594" gradientTransform="matrix(1.6418 0.4972 0.4667 -1.7492 173.0053 -129.668)" gradientUnits="userSpaceOnUse">
			<stop  offset="0" style="stop-color:#A7CF38"/>
			<stop  offset="0.0435" style="stop-color:#8FAF38"/>
			<stop  offset="0.1294" style="stop-color:#6C8535"/>
			<stop  offset="0.2202" style="stop-color:#52652E"/>
			<stop  offset="0.315" style="stop-color:#3F4E27"/>
			<stop  offset="0.4152" style="stop-color:#313E20"/>
			<stop  offset="0.5232" style="stop-color:#27331A"/>
			<stop  offset="0.6447" style="stop-color:#222C17"/>
			<stop  offset="0.8077" style="stop-color:#202A15"/>
		</radialGradient>
		<path fill="url(#SVGID_2_)" d="M143.577,57.924l-73.386,257.03c0.005,0,0.005,0,0.005,0c0.007,0.003,0.01,0.004,0.013,0.004
			c0.003,0,0.012,0.002,0.013,0.003c0.002,0.002,0.015,0.002,0.017,0.003c0-0.002,3.062,0.62,6.796,1.375l36.267,7.336
			c3.73,0.755,9.839,1.991,13.571,2.745l55.366,11.202c3.735,0.753,9.843,1.991,13.576,2.746l50.434,10.203
			c3.732,0.754,9.841,1.99,13.575,2.744l18.477,3.741c3.735,0.753,7.532-1.844,8.443-5.774l58.693-253.693
			c0.908-3.931,1.413-6.129,2.087-9.024c0,0,0.262-1.129-0.423-2.44c-0.61-1.159-2.227-1.404-2.227-1.404
			c-2.685-0.355-5.284-0.702-9.054-1.204l-11.106-1.478c-3.769-0.502-9.939-1.323-13.706-1.824l-47.19-6.283
			c-3.769-0.501-9.938-1.323-13.706-1.825l-52.019-6.924c-3.77-0.501-9.939-1.324-13.708-1.825l-33.9-4.512
			c-3.769-0.502-6.856-0.914-6.857-0.914c-0.002,0.002-0.012,0-0.013,0c-0.002,0-0.012-0.003-0.013-0.003
			c-0.003,0-0.01-0.002-0.012-0.002C143.582,57.927,143.58,57.926,143.577,57.924"/>
	</g>
	
		<radialGradient id="SVGID_3_" cx="13.0868" cy="-248.8853" r="29.2194" gradientTransform="matrix(1.6418 0.4972 0.4667 -1.7492 173.0053 -129.668)" gradientUnits="userSpaceOnUse">
		<stop  offset="0" style="stop-color:#A7CF38"/>
		<stop  offset="0.0435" style="stop-color:#8FAF38"/>
		<stop  offset="0.1294" style="stop-color:#6C8535"/>
		<stop  offset="0.2202" style="stop-color:#52652E"/>
		<stop  offset="0.315" style="stop-color:#3F4E27"/>
		<stop  offset="0.4152" style="stop-color:#313E20"/>
		<stop  offset="0.5232" style="stop-color:#27331A"/>
		<stop  offset="0.6447" style="stop-color:#222C17"/>
		<stop  offset="0.8077" style="stop-color:#202A15"/>
	</radialGradient>
	<path fill="url(#SVGID_3_)" d="M70.191,314.954c-0.015-0.004-0.03-0.005-0.043-0.01c-0.018-0.003-0.03-0.006-0.043-0.009
		c-0.018-0.003-0.03-0.006-0.047-0.009c-0.013-0.003-0.028-0.006-0.047-0.011c-0.012-0.001-0.027-0.007-0.043-0.011
		c-0.013-0.003-0.028-0.006-0.043-0.009c-0.017-0.003-0.03-0.006-0.043-0.012c-0.018-0.003-0.032-0.006-0.047-0.009
		c-0.017-0.003-0.028-0.008-0.045-0.012c-0.015-0.004-0.033-0.006-0.048-0.011c-0.013-0.003-0.03-0.008-0.045-0.012
		c-0.017-0.004-0.028-0.008-0.045-0.011c-0.018-0.006-0.037-0.011-0.052-0.012c-0.018-0.006-0.037-0.011-0.053-0.015
		c-0.015-0.005-0.033-0.01-0.052-0.016c-0.018-0.003-0.035-0.009-0.052-0.013c-0.017-0.004-0.035-0.011-0.053-0.014
		c-0.02-0.006-0.035-0.011-0.053-0.015c-0.017-0.006-0.032-0.011-0.052-0.015c-0.017-0.006-0.037-0.012-0.053-0.016
		c-0.018-0.006-0.038-0.013-0.057-0.019c-0.018-0.004-0.038-0.011-0.058-0.015c-0.022-0.009-0.038-0.012-0.06-0.019
		c-0.018-0.005-0.038-0.012-0.055-0.018c-0.027-0.009-0.052-0.016-0.077-0.024c-0.022-0.008-0.048-0.015-0.073-0.021
		c-0.025-0.01-0.052-0.019-0.075-0.027c-0.025-0.008-0.047-0.017-0.073-0.025c-0.03-0.011-0.058-0.02-0.09-0.029
		c-0.028-0.011-0.058-0.021-0.087-0.03c-0.03-0.009-0.06-0.021-0.09-0.032c-0.028-0.012-0.06-0.02-0.09-0.031
		c-0.065-0.023-0.128-0.046-0.192-0.071c-0.065-0.024-0.132-0.049-0.195-0.074c-0.067-0.025-0.13-0.051-0.195-0.075
		c-0.068-0.027-0.132-0.052-0.197-0.078c-0.113-0.048-0.223-0.094-0.337-0.14c-0.113-0.046-0.223-0.095-0.337-0.144
		c-0.11-0.05-0.225-0.102-0.337-0.151c-0.112-0.052-0.225-0.105-0.337-0.157c-0.167-0.078-0.33-0.158-0.497-0.24
		c-0.165-0.082-0.327-0.162-0.492-0.248c-0.163-0.084-0.325-0.171-0.489-0.257c-0.16-0.084-0.323-0.172-0.48-0.258
		c-0.137-0.076-0.27-0.15-0.403-0.227c-0.133-0.075-0.265-0.151-0.395-0.227c-0.132-0.075-0.262-0.154-0.39-0.231
		c-0.125-0.074-0.252-0.151-0.377-0.227c-0.118-0.074-0.238-0.149-0.355-0.222c-0.118-0.074-0.23-0.147-0.345-0.221
		c-0.112-0.072-0.223-0.145-0.33-0.215c-0.112-0.073-0.217-0.142-0.32-0.216c-0.093-0.061-0.185-0.123-0.275-0.185
		c-0.087-0.061-0.173-0.123-0.258-0.184c-0.083-0.059-0.168-0.117-0.248-0.176c-0.08-0.059-0.158-0.117-0.235-0.172
		c-0.06-0.046-0.12-0.091-0.177-0.135c-0.057-0.043-0.113-0.086-0.168-0.13c-0.055-0.043-0.107-0.084-0.158-0.126
		c-0.052-0.04-0.1-0.08-0.15-0.12c-0.027-0.024-0.057-0.047-0.082-0.07c-0.03-0.023-0.055-0.045-0.08-0.068
		c-0.027-0.023-0.052-0.044-0.078-0.066c-0.023-0.021-0.05-0.044-0.072-0.063c-0.215-0.192-0.442-0.392-0.675-0.599
		c-0.235-0.21-0.475-0.428-0.725-0.649c-0.245-0.225-0.498-0.456-0.753-0.687c-0.258-0.233-0.517-0.472-0.777-0.712
		c-0.26-0.24-0.519-0.483-0.778-0.725c-0.258-0.243-0.513-0.486-0.765-0.729c-0.253-0.243-0.502-0.483-0.745-0.721
		c-0.24-0.239-0.475-0.474-0.702-0.703c-0.058-0.058-0.117-0.116-0.17-0.175c-0.058-0.059-0.117-0.117-0.172-0.174
		c-0.053-0.057-0.11-0.115-0.165-0.17c-0.053-0.057-0.105-0.114-0.16-0.171c-0.117-0.122-0.225-0.24-0.335-0.359
		c-0.107-0.116-0.212-0.23-0.312-0.343c-0.1-0.11-0.193-0.219-0.283-0.322c-0.09-0.107-0.177-0.208-0.253-0.306
		c-0.003-0.003-0.008-0.008-0.012-0.013c-0.003-0.006-0.008-0.009-0.008-0.013c-0.005-0.005-0.01-0.01-0.012-0.014
		c-0.003-0.006-0.008-0.009-0.012-0.014c-0.018-0.023-0.035-0.044-0.052-0.067c-0.018-0.021-0.032-0.044-0.05-0.069
		c-0.017-0.021-0.035-0.043-0.047-0.066c-0.017-0.023-0.033-0.046-0.048-0.069c-0.017-0.028-0.037-0.055-0.053-0.086
		c-0.018-0.027-0.037-0.059-0.052-0.086c-0.018-0.031-0.033-0.057-0.052-0.088c-0.015-0.029-0.028-0.058-0.043-0.086
		c-0.013-0.03-0.028-0.06-0.042-0.091c-0.012-0.029-0.025-0.059-0.035-0.087c-0.012-0.031-0.025-0.06-0.035-0.088
		c-0.008-0.031-0.018-0.061-0.028-0.091c-0.01-0.029-0.018-0.057-0.023-0.088c-0.007-0.031-0.015-0.059-0.02-0.086
		c-0.007-0.031-0.01-0.061-0.013-0.09c-0.005-0.027-0.007-0.057-0.01-0.084c-0.002-0.029-0.002-0.057-0.003-0.086
		c0-0.028,0.002-0.057,0.007-0.084c0-0.027,0.002-0.055,0.007-0.083c0.003-0.028,0.008-0.054,0.015-0.083
		c0.002-0.003,0.003-0.009,0.005-0.012c0-0.006,0.002-0.011,0.005-0.015c0-0.006,0.002-0.01,0.002-0.015
		c0-0.005,0.003-0.01,0.003-0.016l76.301-262.026c-0.003,0.008-0.007,0.016-0.007,0.023c-0.003,0.01-0.007,0.016-0.008,0.025
		s-0.003,0.016-0.005,0.025c-0.002,0.006-0.007,0.015-0.007,0.023c-0.013,0.043-0.022,0.087-0.032,0.131
		c-0.008,0.046-0.017,0.088-0.025,0.132c-0.007,0.044-0.012,0.091-0.018,0.135c-0.002,0.044-0.008,0.088-0.012,0.132
		c-0.003,0.046-0.007,0.09-0.008,0.134c-0.002,0.046-0.002,0.091-0.002,0.135c0,0.045,0,0.088,0.002,0.134
		c0.002,0.043,0.007,0.089,0.008,0.135c0.003,0.043,0.008,0.09,0.012,0.136c0.005,0.043,0.008,0.086,0.017,0.131
		c0.005,0.044,0.013,0.089,0.02,0.134c0.008,0.043,0.017,0.089,0.025,0.131c0.01,0.043,0.02,0.086,0.028,0.13
		c0.012,0.043,0.02,0.084,0.032,0.126c0.012,0.043,0.023,0.086,0.037,0.129c0.012,0.04,0.023,0.083,0.037,0.125
		c0.012,0.032,0.022,0.066,0.035,0.099c0.008,0.031,0.023,0.065,0.035,0.097c0.013,0.033,0.023,0.067,0.037,0.098
		c0.012,0.032,0.025,0.063,0.038,0.097c0.002,0.004,0.005,0.012,0.008,0.019c0.003,0.006,0.005,0.013,0.008,0.019
		c0.003,0.006,0.007,0.013,0.007,0.019c0.003,0.007,0.007,0.015,0.01,0.021c0.058,0.138,0.127,0.282,0.195,0.431
		c0.07,0.147,0.142,0.301,0.222,0.456c0.077,0.157,0.16,0.317,0.245,0.481c0.085,0.164,0.175,0.332,0.265,0.5
		c0.043,0.078,0.087,0.158,0.128,0.236c0.043,0.079,0.087,0.159,0.132,0.239c0.043,0.08,0.092,0.16,0.137,0.24
		c0.045,0.082,0.09,0.162,0.138,0.246c0.18,0.317,0.372,0.643,0.568,0.973c0.195,0.328,0.397,0.66,0.603,0.994
		c0.205,0.333,0.413,0.67,0.627,1.004c0.21,0.332,0.422,0.664,0.635,0.995c0.213,0.33,0.427,0.656,0.635,0.977
		c0.215,0.318,0.423,0.63,0.628,0.936c0.203,0.306,0.405,0.601,0.597,0.885c0.193,0.286,0.382,0.559,0.562,0.818
		c0.018,0.029,0.038,0.059,0.06,0.089c0.02,0.027,0.042,0.059,0.063,0.09c0.022,0.03,0.043,0.059,0.068,0.091
		c0.02,0.032,0.045,0.063,0.068,0.094c0.04,0.055,0.082,0.107,0.125,0.162c0.043,0.056,0.088,0.111,0.133,0.166
		c0.047,0.059,0.095,0.117,0.143,0.176c0.05,0.058,0.102,0.116,0.153,0.177c0.063,0.074,0.132,0.15,0.202,0.227
		c0.068,0.077,0.14,0.155,0.21,0.232c0.077,0.08,0.15,0.159,0.227,0.241c0.077,0.078,0.157,0.16,0.237,0.24
		c0.09,0.092,0.183,0.184,0.278,0.276c0.093,0.092,0.19,0.185,0.288,0.279c0.098,0.094,0.2,0.185,0.302,0.28
		c0.103,0.095,0.207,0.189,0.312,0.282c0.108,0.095,0.222,0.193,0.333,0.29c0.113,0.097,0.227,0.193,0.343,0.288
		c0.115,0.095,0.235,0.191,0.35,0.284c0.12,0.092,0.24,0.186,0.358,0.279c0.143,0.107,0.287,0.215,0.43,0.322
		c0.145,0.103,0.292,0.206,0.44,0.308c0.145,0.101,0.293,0.2,0.442,0.295c0.148,0.099,0.298,0.193,0.447,0.285
		c0.103,0.063,0.205,0.123,0.308,0.183c0.103,0.059,0.203,0.116,0.303,0.172c0.105,0.055,0.208,0.112,0.31,0.166
		c0.103,0.052,0.205,0.104,0.307,0.153c0.062,0.03,0.123,0.059,0.183,0.087c0.058,0.027,0.118,0.056,0.178,0.082
		c0.06,0.027,0.122,0.054,0.18,0.079c0.06,0.026,0.118,0.051,0.178,0.075c0.028,0.01,0.057,0.022,0.085,0.031
		c0.027,0.012,0.055,0.023,0.082,0.034c0.027,0.013,0.053,0.021,0.083,0.031c0.027,0.009,0.055,0.021,0.08,0.03
		c0.025,0.006,0.048,0.017,0.073,0.025c0.022,0.01,0.045,0.015,0.067,0.025c0.021,0.008,0.045,0.015,0.068,0.023
		c0.023,0.008,0.047,0.015,0.07,0.021c0.017,0.008,0.035,0.012,0.055,0.02c0.018,0.004,0.038,0.011,0.053,0.015
		c0.018,0.006,0.038,0.012,0.055,0.019c0.018,0.004,0.037,0.009,0.055,0.015c0.017,0.004,0.033,0.009,0.05,0.013
		c0.017,0.005,0.03,0.01,0.048,0.014c0.017,0.004,0.035,0.009,0.052,0.016c0.015,0.003,0.03,0.007,0.048,0.011
		c0.015,0.004,0.033,0.01,0.048,0.013c0.015,0.004,0.032,0.008,0.05,0.012c0.017,0.003,0.032,0.009,0.048,0.012
		c0.015,0.003,0.032,0.008,0.048,0.009c0.017,0.006,0.03,0.01,0.043,0.013c0.015,0.003,0.03,0.008,0.043,0.01
		c0.015,0.003,0.03,0.005,0.043,0.009c0.017,0.003,0.03,0.006,0.043,0.009c0.013,0.003,0.03,0.005,0.043,0.01
		c0.013,0.003,0.03,0.006,0.045,0.007c0.012,0.003,0.028,0.004,0.04,0.008c0.015,0.003,0.028,0.003,0.042,0.008
		c0.015,0.001,0.03,0.004,0.043,0.006c0.013,0.004,0.028,0.004,0.043,0.007c0.013,0.003,0.03,0.004,0.042,0.006
		c0.013,0.004,0.03,0.004,0.043,0.006L70.191,314.954z"/>
	<g>
		
			<radialGradient id="SVGID_4_" cx="177.212" cy="-188.8409" r="111.4832" gradientTransform="matrix(1.6418 0.4972 0.4667 -1.7492 173.0053 -129.668)" gradientUnits="userSpaceOnUse">
			<stop  offset="0" style="stop-color:#FFFFFF"/>
			<stop  offset="0.214" style="stop-color:#FCFCFC"/>
			<stop  offset="0.3686" style="stop-color:#F3F3F3"/>
			<stop  offset="0.5046" style="stop-color:#E3E3E3"/>
			<stop  offset="0.6297" style="stop-color:#CDCDCD"/>
			<stop  offset="0.7475" style="stop-color:#B0B0B0"/>
			<stop  offset="0.8598" style="stop-color:#8C8C8C"/>
			<stop  offset="0.9657" style="stop-color:#636363"/>
			<stop  offset="1" style="stop-color:#545454"/>
		</radialGradient>
		<path fill="url(#SVGID_4_)" d="M331.792,71.185c-0.003,0.025,0,0.051-0.003,0.075c0.008,0.865,0.08,1.704,0.222,2.532
			c0.002,0.015,0.002,0.03,0.007,0.043c0.145,0.839,0.36,1.667,0.652,2.5c0,0.013,0.01,0.028,0.015,0.041
			c0.14,0.408,0.302,0.819,0.485,1.233c0.005,0.008,0.007,0.017,0.012,0.023c0.178,0.409,0.377,0.818,0.593,1.238
			c0.013,0.023,0.025,0.048,0.038,0.073c0.222,0.421,0.46,0.848,0.722,1.285c0.013,0.025,0.03,0.046,0.047,0.074
			c0.248,0.416,0.515,0.836,0.802,1.267c0.035,0.054,0.075,0.111,0.113,0.166c0.278,0.416,0.573,0.836,0.885,1.27
			c0.027,0.031,0.043,0.06,0.067,0.092c0.322,0.441,0.667,0.897,1.025,1.358c0.097,0.122,0.195,0.248,0.292,0.372
			c0.302,0.384,0.615,0.777,0.942,1.176c0.082,0.099,0.16,0.195,0.243,0.3c0.432,0.521,0.882,1.059,1.355,1.614l-60.261,264.085
			c-0.123-0.095-0.248-0.19-0.368-0.282c-0.123-0.096-0.245-0.188-0.363-0.28c-0.118-0.094-0.237-0.186-0.353-0.277
			c-0.118-0.09-0.233-0.182-0.348-0.271c-0.055-0.042-0.1-0.08-0.153-0.12c-0.078-0.065-0.155-0.126-0.232-0.186
			c-0.238-0.187-0.477-0.379-0.705-0.561c-0.152-0.123-0.292-0.24-0.438-0.36c-0.107-0.086-0.217-0.175-0.319-0.261
			c-0.085-0.071-0.173-0.141-0.255-0.21c-0.325-0.27-0.637-0.534-0.935-0.793c-0.005-0.004-0.01-0.008-0.013-0.012
			c-0.033-0.028-0.06-0.052-0.093-0.08c-0.26-0.226-0.515-0.449-0.755-0.668c-0.1-0.089-0.192-0.177-0.288-0.265
			c-0.025-0.021-0.052-0.045-0.077-0.067c-0.015-0.015-0.027-0.029-0.047-0.046c-0.033-0.034-0.075-0.069-0.113-0.104
			c-0.167-0.157-0.33-0.314-0.492-0.468c-0.122-0.118-0.237-0.235-0.353-0.351c-0.022-0.021-0.045-0.044-0.065-0.068
			c-0.013-0.012-0.032-0.026-0.043-0.04c-0.15-0.151-0.293-0.3-0.435-0.448c-0.112-0.12-0.222-0.238-0.327-0.357
			c-0.022-0.022-0.042-0.045-0.063-0.068c-0.02-0.022-0.037-0.045-0.058-0.065c-0.063-0.071-0.128-0.147-0.19-0.217
			c-0.1-0.115-0.198-0.233-0.292-0.346c-0.087-0.101-0.168-0.202-0.247-0.304c-0.008-0.009-0.015-0.017-0.022-0.024
			c0-0.005-0.005-0.008-0.008-0.014c-0.08-0.103-0.16-0.206-0.237-0.307c-0.077-0.103-0.15-0.208-0.222-0.306
			c-0.052-0.078-0.103-0.151-0.152-0.227c-0.005-0.007-0.015-0.019-0.022-0.03c-0.002-0.003-0.003-0.006-0.005-0.011
			c-0.008-0.013-0.022-0.027-0.028-0.04c-0.067-0.1-0.128-0.2-0.193-0.302c-0.058-0.099-0.12-0.2-0.177-0.299
			c-0.055-0.1-0.112-0.199-0.163-0.3c-0.053-0.099-0.103-0.197-0.152-0.297c-0.048-0.097-0.093-0.197-0.137-0.294
			c-0.022-0.059-0.047-0.115-0.068-0.172c-0.007-0.013-0.01-0.023-0.015-0.036c-0.017-0.04-0.035-0.078-0.048-0.115
			c-0.043-0.109-0.082-0.219-0.118-0.322c-0.037-0.111-0.07-0.218-0.103-0.326c-0.03-0.108-0.058-0.216-0.087-0.323
			c-0.032-0.135-0.062-0.267-0.087-0.403c-0.012-0.061-0.018-0.12-0.028-0.183c-0.002-0.009-0.007-0.019-0.008-0.027
			c-0.002-0.011,0-0.02-0.002-0.029c-0.008-0.055-0.018-0.112-0.027-0.166c-0.02-0.135-0.032-0.273-0.043-0.408
			c-0.01-0.139-0.018-0.277-0.022-0.417c-0.007-0.211-0.005-0.425,0.007-0.644c0-0.031,0.005-0.065,0.008-0.096
			c0-0.024,0.005-0.052,0.005-0.076c0.01-0.16,0.02-0.323,0.038-0.486c0.025-0.225,0.057-0.453,0.095-0.684
			c0.042-0.232,0.085-0.464,0.138-0.706l62.778-270.951c-0.237,1.052-0.413,2.038-0.535,2.983c-0.005,0.034-0.012,0.069-0.017,0.101
			C331.848,69.428,331.786,70.32,331.792,71.185z"/>
		
			<radialGradient id="SVGID_5_" cx="58.4764" cy="-160.8532" r="114.2576" gradientTransform="matrix(1.6418 0.4972 0.4667 -1.7492 173.0053 -129.668)" gradientUnits="userSpaceOnUse">
			<stop  offset="0" style="stop-color:#FFFFFF"/>
			<stop  offset="0.214" style="stop-color:#FCFCFC"/>
			<stop  offset="0.3686" style="stop-color:#F3F3F3"/>
			<stop  offset="0.5046" style="stop-color:#E3E3E3"/>
			<stop  offset="0.6297" style="stop-color:#CDCDCD"/>
			<stop  offset="0.7475" style="stop-color:#B0B0B0"/>
			<stop  offset="0.8598" style="stop-color:#8C8C8C"/>
			<stop  offset="0.9657" style="stop-color:#636363"/>
			<stop  offset="1" style="stop-color:#545454"/>
		</radialGradient>
		<path fill="url(#SVGID_5_)" d="M241.742,330.843c-9.248-1.817-18.449-3.621-27.603-5.412c-9.116-1.784-18.187-3.556-27.215-5.314
			c-8.986-1.752-17.927-3.49-26.826-5.216c-8.959-1.741-17.872-3.464-26.74-5.178c-8.829-1.705-17.613-3.399-26.354-5.078
			c-8.699-1.673-17.357-3.335-25.969-4.985c-8.574-1.639-17.107-3.27-25.594-4.886l73.649-254.877
			c8.091,0.966,16.22,1.946,24.386,2.933c8.202,0.995,16.442,1.997,24.721,3.012c8.314,1.019,16.667,2.048,25.059,3.087
			c8.426,1.046,16.892,2.099,25.396,3.167c8.448,1.058,16.93,2.127,25.456,3.207c8.557,1.082,17.155,2.181,25.793,3.286
			c8.673,1.112,17.382,2.234,26.134,3.369c8.789,1.137,17.617,2.285,26.481,3.447l-62.778,270.951
			C260.361,334.505,251.027,332.666,241.742,330.843z"/>
		
			<radialGradient id="SVGID_6_" cx="141.7747" cy="-243.8154" r="152.4703" gradientTransform="matrix(1.6418 0.4972 0.4667 -1.7492 173.0053 -129.668)" gradientUnits="userSpaceOnUse">
			<stop  offset="0" style="stop-color:#FFFFFF"/>
			<stop  offset="0.214" style="stop-color:#FCFCFC"/>
			<stop  offset="0.3686" style="stop-color:#F3F3F3"/>
			<stop  offset="0.5046" style="stop-color:#E3E3E3"/>
			<stop  offset="0.6297" style="stop-color:#CDCDCD"/>
			<stop  offset="0.7475" style="stop-color:#B0B0B0"/>
			<stop  offset="0.8598" style="stop-color:#8C8C8C"/>
			<stop  offset="0.9657" style="stop-color:#636363"/>
			<stop  offset="1" style="stop-color:#545454"/>
		</radialGradient>
		<path fill="url(#SVGID_6_)" d="M160.099,314.901c-8.959-1.741-17.872-3.464-26.74-5.178c-8.829-1.705-17.613-3.399-26.354-5.078
			c-8.699-1.673-17.357-3.335-25.969-4.985c-8.574-1.639-17.107-3.27-25.594-4.886c2.877,1.886,5.227,3.502,7.162,4.948
			c1.924,1.439,3.439,2.714,4.644,3.924c1.202,1.2,2.097,2.339,2.784,3.512c0.685,1.168,1.169,2.366,1.543,3.694
			c8.293,1.665,16.615,3.333,24.969,5.003c8.391,1.678,16.81,3.358,25.263,5.039c8.486,1.691,17.005,3.384,25.558,5.079
			c8.593,1.703,17.217,3.41,25.873,5.12c8.696,1.716,17.425,3.436,26.193,5.16c8.806,1.731,17.649,3.466,26.525,5.205
			c8.919,1.745,17.873,3.498,26.866,5.25c9.034,1.76,18.11,3.529,27.223,5.297c-2.324-1.78-4.202-3.313-5.697-4.693
			c-1.498-1.387-2.607-2.618-3.387-3.79c-0.782-1.176-1.235-2.293-1.418-3.45c-0.183-1.164-0.095-2.366,0.198-3.713
			c-9.378-1.851-18.712-3.69-27.996-5.514c-9.248-1.817-18.449-3.621-27.603-5.412c-9.116-1.784-18.187-3.556-27.215-5.314
			C177.939,318.365,168.998,316.627,160.099,314.901z"/>
	</g>
	
		<linearGradient id="SVGID_7_" gradientUnits="userSpaceOnUse" x1="258.298" y1="-286.3482" x2="154.1337" y2="-236.634" gradientTransform="matrix(0.9619 0.2734 0.2734 -0.9619 28.408 -84.0115)">
		<stop  offset="0.4286" style="stop-color:#FFFFFF"/>
		<stop  offset="0.4853" style="stop-color:#ECECEC"/>
		<stop  offset="0.6001" style="stop-color:#BCBCBC"/>
		<stop  offset="0.7609" style="stop-color:#6E6E6E"/>
		<stop  offset="0.8901" style="stop-color:#2B2B2B"/>
		<stop  offset="1" style="stop-color:#000000"/>
	</linearGradient>
	<path fill="url(#SVGID_7_)" d="M54.706,297.864c-0.944-0.12-1.744-0.169-2.432-0.171c-0.108,0-0.207,0.005-0.308,0.008
		c-0.217,0.003-0.423,0.013-0.615,0.03c-0.092,0.01-0.187,0.017-0.275,0.029c-0.105,0.011-0.193,0.032-0.288,0.049
		c-0.323,0.055-0.607,0.126-0.844,0.217c-0.035,0.014-0.082,0.023-0.12,0.039c-0.247,0.104-0.435,0.234-0.587,0.375
		c-0.037,0.034-0.067,0.067-0.097,0.101c-0.135,0.147-0.242,0.304-0.292,0.48c25.496-87.388,50.989-174.756,76.486-262.141
		c0.082-0.283,0.215-0.553,0.377-0.815c0.022-0.032,0.027-0.069,0.05-0.103c0.015-0.026,0.048-0.045,0.065-0.069
		c0.038-0.055,0.065-0.115,0.11-0.169c0.152-0.191,0.337-0.368,0.547-0.535c0.008-0.009,0.013-0.02,0.025-0.028
		c0.023-0.019,0.063-0.032,0.088-0.052c0.153-0.112,0.3-0.227,0.482-0.326c0.122-0.067,0.268-0.12,0.405-0.181
		c0.05-0.022,0.08-0.057,0.133-0.077c0.03-0.012,0.075-0.017,0.105-0.027c0.34-0.136,0.71-0.256,1.138-0.342
		c0.05-0.011,0.118-0.015,0.172-0.024c0.037-0.01,0.063-0.022,0.102-0.031c0.075-0.011,0.147-0.023,0.22-0.034
		c0.075-0.009,0.15-0.021,0.228-0.032c0.077-0.008,0.153-0.017,0.233-0.027c0.06-0.006,0.125-0.012,0.187-0.017
		c0.005,0,0.015-0.001,0.023-0.003c0.01,0,0.018-0.002,0.028-0.002c0.065-0.006,0.13-0.011,0.198-0.015
		c0.063-0.004,0.13-0.006,0.198-0.011c0.067-0.005,0.133-0.007,0.202-0.011c0.07-0.001,0.138-0.003,0.21-0.005
		c0.038,0,0.082,0,0.122,0c0.042-0.002,0.082-0.002,0.125-0.002c0.042,0,0.083,0,0.125,0c0.04-0.002,0.083,0,0.127-0.002
		L54.706,297.864z"/>
	<path fill="none" d="M131.361,33.94L54.706,297.864c0.14,0.022,0.405,0.068,0.777,0.136c0.373,0.069,0.853,0.162,1.425,0.273
		c0.572,0.111,1.234,0.24,1.972,0.386c0.738,0.146,1.55,0.306,2.42,0.476c1.723,0.344,3.58,0.672,5.411,0.974
		c1.83,0.301,3.63,0.576,5.232,0.81c1.602,0.237,3.005,0.429,4.037,0.567c1.035,0.139,1.697,0.223,1.819,0.238
		c0.085,0.012,0.428,0.103,0.918,0.237c0.492,0.139,1.135,0.319,1.818,0.509c0.683,0.189,1.413,0.391,2.077,0.566
		c0.667,0.172,1.273,0.322,1.709,0.407l75.356-266.376c-0.415-0.055-0.987-0.172-1.615-0.32c-0.628-0.146-1.31-0.322-1.955-0.49
		c-0.643-0.17-1.245-0.331-1.707-0.453c-0.463-0.118-0.785-0.196-0.87-0.198c-0.113,0-0.757-0.006-1.753-0.027
		c-0.999-0.021-2.352-0.059-3.897-0.12c-1.545-0.061-3.277-0.152-5.036-0.277c-1.757-0.126-3.537-0.286-5.182-0.496
		c-0.832-0.105-1.608-0.201-2.31-0.29c-0.707-0.086-1.337-0.165-1.887-0.231c-0.545-0.067-1.005-0.12-1.362-0.157
		C131.748,33.971,131.494,33.947,131.361,33.94z"/>
	
		<linearGradient id="SVGID_8_" gradientUnits="userSpaceOnUse" x1="248.705" y1="-249.2935" x2="150.0413" y2="-223.8047" gradientTransform="matrix(0.9619 0.2734 0.2734 -0.9619 28.408 -84.0115)">
		<stop  offset="0.2967" style="stop-color:#FFFFFF"/>
		<stop  offset="1" style="stop-color:#000000"/>
	</linearGradient>
	<polygon fill="url(#SVGID_8_)" points="130.653,33.949 52.274,297.694 76.835,302.014 152.676,36.26 	"/>
	
		<linearGradient id="SVGID_9_" gradientUnits="userSpaceOnUse" x1="86.9528" y1="-363.7958" x2="131.9313" y2="-263.9301" gradientTransform="matrix(0.9619 0.2734 0.2734 -0.9619 28.408 -84.0115)">
		<stop  offset="0" style="stop-color:#FFFFFF"/>
		<stop  offset="0.0814" style="stop-color:#FBFBFB"/>
		<stop  offset="0.1627" style="stop-color:#EFEFEF"/>
		<stop  offset="0.2441" style="stop-color:#DBDBDB"/>
		<stop  offset="0.3255" style="stop-color:#BFBFBF"/>
		<stop  offset="0.407" style="stop-color:#9B9B9B"/>
		<stop  offset="0.4875" style="stop-color:#6F6F6F"/>
		<stop  offset="0.5385" style="stop-color:#4F4F4F"/>
		<stop  offset="1" style="stop-color:#000000"/>
	</linearGradient>
	<polygon fill="url(#SVGID_9_)" points="147.991,35.77 72.326,300.976 80.311,302.51 156.028,36.373 	"/>
	
		<linearGradient id="SVGID_10_" gradientUnits="userSpaceOnUse" x1="265.0607" y1="-331.049" x2="164.5839" y2="-225.1611" gradientTransform="matrix(0.9619 0.2734 0.2734 -0.9619 28.408 -84.0115)">
		<stop  offset="0" style="stop-color:#FFFFFF"/>
		<stop  offset="0.0814" style="stop-color:#FBFBFB"/>
		<stop  offset="0.1627" style="stop-color:#EFEFEF"/>
		<stop  offset="0.2441" style="stop-color:#DBDBDB"/>
		<stop  offset="0.3255" style="stop-color:#BFBFBF"/>
		<stop  offset="0.407" style="stop-color:#9B9B9B"/>
		<stop  offset="0.4875" style="stop-color:#6F6F6F"/>
		<stop  offset="0.5385" style="stop-color:#4F4F4F"/>
		<stop  offset="1" style="stop-color:#000000"/>
	</linearGradient>
	<path fill="url(#SVGID_10_)" d="M163.688,36.213L88.22,303.927c-0.018,0.003-0.118,0.014-0.247,0.029
		c-0.018,0.002-0.017,0.002-0.035,0.003c-0.005,0.001-0.012,0-0.015,0.003c-0.057,0.004-0.098,0.009-0.165,0.015
		c-0.113,0.013-0.25,0.027-0.395,0.037c-0.025,0.002-0.038,0.003-0.062,0.006c-0.017,0-0.037,0.003-0.052,0.003
		c-0.157,0.012-0.327,0.023-0.505,0.035c-0.03,0.002-0.063,0-0.095,0.002c-0.075,0.003-0.135,0.009-0.215,0.012
		c-0.305,0.013-0.63,0.019-0.953,0.015c-0.008,0-0.015,0-0.025,0c0,0,0,0-0.002,0c-0.002,0-0.002,0-0.002,0
		c-0.052,0-0.105-0.002-0.158-0.003c-0.053-0.004-0.105-0.004-0.16-0.006c-0.05-0.002-0.103-0.005-0.155-0.01
		c-0.052-0.001-0.103-0.003-0.157-0.007c-0.025-0.004-0.053-0.005-0.078-0.006c-0.028-0.002-0.055-0.004-0.082-0.006
		c-0.028-0.002-0.053-0.005-0.078-0.008c-0.028-0.002-0.053-0.005-0.082-0.008c-0.015-0.001-0.035-0.005-0.052-0.005
		c-0.015-0.002-0.032-0.004-0.048-0.009c-0.018,0-0.033-0.002-0.052-0.004c-0.015-0.002-0.033-0.005-0.048-0.008
		c-0.012,0-0.023-0.002-0.033-0.003c-0.01,0-0.02-0.003-0.032-0.003c-0.01-0.003-0.02-0.005-0.028-0.006
		c-0.012,0-0.023-0.003-0.033-0.005c-0.005,0-0.012-0.002-0.02-0.003c-0.005-0.002-0.013-0.002-0.018-0.005
		c-0.005,0-0.012-0.003-0.017-0.003c-0.008-0.004-0.015-0.004-0.022-0.006c-0.02-0.003-0.042-0.006-0.063-0.012
		c-0.023-0.003-0.045-0.009-0.07-0.015c-0.022-0.003-0.047-0.008-0.07-0.012c-0.023-0.006-0.047-0.013-0.07-0.015
		c-0.037-0.01-0.072-0.019-0.107-0.025c-0.037-0.01-0.073-0.019-0.11-0.027c-0.037-0.009-0.075-0.017-0.112-0.026
		c-0.037-0.009-0.078-0.019-0.117-0.027c-0.062-0.016-0.123-0.031-0.188-0.046c-0.062-0.015-0.125-0.032-0.192-0.05
		c-0.067-0.015-0.132-0.032-0.202-0.049c-0.065-0.019-0.135-0.036-0.203-0.054c-0.15-0.038-0.302-0.078-0.453-0.118
		c-0.155-0.04-0.312-0.082-0.468-0.126c-0.158-0.043-0.317-0.083-0.475-0.128c-0.16-0.043-0.318-0.087-0.475-0.131
		c-0.2-0.055-0.398-0.11-0.592-0.164c-0.193-0.055-0.385-0.107-0.567-0.158c-0.182-0.052-0.357-0.099-0.52-0.147
		c-0.165-0.044-0.32-0.089-0.463-0.128c-0.063-0.018-0.122-0.035-0.18-0.051c-0.057-0.015-0.112-0.032-0.163-0.046
		c-0.053-0.013-0.103-0.026-0.147-0.038c-0.047-0.013-0.092-0.025-0.133-0.036L152.99,38.49c0.037,0.008,0.75-2.188,0.792-2.175
		L163.688,36.213z"/>
	
		<radialGradient id="SVGID_11_" cx="72.5393" cy="-247.6041" r="62.0915" gradientTransform="matrix(1.6418 0.4972 0.4667 -1.7492 173.0053 -129.668)" gradientUnits="userSpaceOnUse">
		<stop  offset="0" style="stop-color:#A7CF38"/>
		<stop  offset="0.1097" style="stop-color:#9CBF38"/>
		<stop  offset="0.2969" style="stop-color:#84A138"/>
		<stop  offset="0.5389" style="stop-color:#617733"/>
		<stop  offset="0.8232" style="stop-color:#394724"/>
		<stop  offset="1" style="stop-color:#202A15"/>
	</radialGradient>
	<path fill="url(#SVGID_11_)" d="M246.936,325.874l-53.367-7.223l0,0l-77.92-10.552l-19.149-2.592h-0.002l-6.851-0.929
		l37.66-133.588l35.675-126.544c0-0.001,0-0.005,0-0.005l1.987-7.045l117.169,2.675l0,0l33.62,0.767
		c3.8,0.088,6.132,3.365,5.189,7.286l-65.443,271.546C254.562,323.593,250.703,326.381,246.936,325.874z"/>
	
		<radialGradient id="SVGID_12_" cx="140.2592" cy="-273.4175" r="227.4487" gradientTransform="matrix(1.6418 0.4972 0.4667 -1.7492 173.0053 -129.668)" gradientUnits="userSpaceOnUse">
		<stop  offset="0" style="stop-color:#A7CF38"/>
		<stop  offset="0.1694" style="stop-color:#9CC038"/>
		<stop  offset="0.4277" style="stop-color:#83A739"/>
		<stop  offset="0.7411" style="stop-color:#5F8235"/>
		<stop  offset="1" style="stop-color:#3F642F"/>
	</radialGradient>
	<path fill="url(#SVGID_12_)" d="M245.653,324.688l-53.365-7.225l0,0l-77.923-10.55l-19.147-2.592l-0.002-0.002l-6.852-0.926
		l37.662-133.59l35.675-126.542c0,0,0-0.003,0-0.004l1.987-7.044l117.17,2.675l0,0l33.618,0.767
		c3.799,0.088,6.134,3.365,5.189,7.285l-65.442,271.548C253.28,322.408,249.421,325.197,245.653,324.688z"/>
	
		<radialGradient id="SVGID_13_" cx="79.4625" cy="182.0558" r="136.5833" gradientTransform="matrix(1.7068 0 0 1.8185 124.5174 23.1089)" gradientUnits="userSpaceOnUse">
		<stop  offset="0" style="stop-color:#A7CF38"/>
		<stop  offset="0.1694" style="stop-color:#9CC038"/>
		<stop  offset="0.4277" style="stop-color:#83A739"/>
		<stop  offset="0.7411" style="stop-color:#5F8235"/>
		<stop  offset="1" style="stop-color:#3F642F"/>
	</radialGradient>
	<path fill="url(#SVGID_13_)" d="M291.709,136.19c-66.387,0-126.701,20.435-171.358,53.741L88.363,303.393l6.852,0.926l0.002,0.002
		l19.147,2.592l77.923,10.55l53.365,7.225c3.769,0.509,7.627-2.28,8.571-6.202l43.918-182.234
		C296.005,136.211,293.859,136.19,291.709,136.19z"/>
	
		<radialGradient id="SVGID_14_" cx="62.6956" cy="-240.4541" r="48.9273" gradientTransform="matrix(1.6418 0.4972 0.4667 -1.7492 173.0053 -129.668)" gradientUnits="userSpaceOnUse">
		<stop  offset="0" style="stop-color:#A7CF38"/>
		<stop  offset="0.1694" style="stop-color:#9CC038"/>
		<stop  offset="0.4277" style="stop-color:#83A739"/>
		<stop  offset="0.7411" style="stop-color:#5F8235"/>
		<stop  offset="1" style="stop-color:#3F642F"/>
	</radialGradient>
	<path fill="url(#SVGID_14_)" d="M275.599,356.507c-5.596-1.133-13.33-2.698-22.562-4.565c-17.5-3.541-40.287-8.15-64.008-12.948
		c-23.446-4.743-47.78-9.665-68.941-13.948c-20.937-4.235-38.829-7.852-49.84-10.08c-0.944-0.191-1.987-0.548-3.045-0.996
		c-1.06-0.449-2.139-0.995-3.154-1.565c-1.018-0.569-1.972-1.166-2.78-1.716c-0.808-0.551-1.472-1.055-1.902-1.442
		c-0.43-0.383-0.903-0.803-1.397-1.248c-0.493-0.443-1.008-0.916-1.527-1.396c-0.52-0.479-1.044-0.971-1.547-1.455
		c-0.507-0.486-0.997-0.965-1.45-1.427c-0.19-0.193-0.375-0.384-0.552-0.568c-0.178-0.185-0.348-0.366-0.508-0.542
		c-0.16-0.174-0.312-0.343-0.45-0.506c-0.138-0.158-0.27-0.312-0.383-0.458c-0.28-0.355-0.493-0.742-0.572-1.114
		c-0.082-0.372-0.02-0.725,0.248-1.017c0.268-0.29,0.753-0.511,1.52-0.616c0.773-0.107,1.832-0.095,3.25,0.086
		c0.03,0.003,0.183,0.029,0.443,0.078c0.257,0.048,0.618,0.117,1.063,0.201c0.447,0.088,0.975,0.191,1.567,0.305
		c0.59,0.118,1.243,0.246,1.935,0.384c0.108,0.021,0.217,0.043,0.325,0.065c0.11,0.021,0.222,0.044,0.332,0.064
		c0.11,0.022,0.223,0.046,0.333,0.068c0.115,0.021,0.227,0.046,0.343,0.07c1.513,0.298,3.195,0.597,4.897,0.88
		c1.703,0.282,3.424,0.55,5.009,0.787c1.59,0.237,3.044,0.443,4.212,0.606c1.167,0.163,2.049,0.281,2.489,0.343l7.836,2.314
		l3.84-0.486l152.194,20.665l1.029-0.886l-155.484-21.05c-0.032,0.002-0.2,0.025-0.46,0.05c-0.263,0.024-0.618,0.052-1.015,0.075
		c-0.397,0.021-0.842,0.032-1.285,0.026c-0.443-0.008-0.887-0.036-1.282-0.1c-0.435-0.085-1.042-0.234-1.709-0.407
		c-0.663-0.176-1.393-0.377-2.077-0.566c-0.683-0.19-1.327-0.37-1.818-0.509c-0.49-0.134-0.833-0.225-0.918-0.237
		c-0.122-0.015-0.783-0.099-1.819-0.238c-1.032-0.139-2.435-0.33-4.037-0.567c-1.602-0.233-3.402-0.509-5.232-0.81
		c-1.83-0.302-3.687-0.63-5.411-0.974c-0.87-0.17-1.682-0.33-2.42-0.476c-0.738-0.147-1.4-0.275-1.972-0.386
		c-0.572-0.112-1.052-0.204-1.425-0.273c-0.372-0.068-0.637-0.114-0.777-0.136c-1.625-0.209-2.855-0.219-3.759-0.092
		c-0.898,0.126-1.477,0.391-1.802,0.739c-0.327,0.349-0.405,0.778-0.31,1.236c0.095,0.455,0.365,0.938,0.735,1.394
		c0.13,0.161,0.27,0.331,0.422,0.506c0.15,0.172,0.313,0.351,0.483,0.538c0.167,0.185,0.348,0.376,0.533,0.569
		c0.188,0.193,0.382,0.393,0.578,0.593c0.473,0.479,0.977,0.972,1.495,1.47c0.52,0.498,1.053,0.999,1.58,1.488
		c0.527,0.488,1.053,0.964,1.553,1.414c0.502,0.452,0.98,0.88,1.42,1.267c0.545,0.472,1.33,1.074,2.287,1.728
		c0.952,0.655,2.075,1.361,3.307,2.045c1.23,0.683,2.564,1.346,3.945,1.91c1.379,0.566,2.802,1.036,4.21,1.338
		c10.956,2.218,28.791,5.83,49.67,10.059c21.104,4.275,45.381,9.192,68.774,13.928c23.672,4.794,46.41,9.398,63.877,12.937
		c8.449,1.708,15.657,3.114,21.101,4.216L275.599,356.507z"/>
</g>
</svg>
